SplineFontDB: 3.2
FontName: v-Rma-serif-Unicode-Regular
FullName: v-Rma-serif Unicode Regular
FamilyName: v-Rma-serif
Weight: Regular
Copyright: Copyright (c) 2023 weijiuqiao.\nUnicode Version cwcornelius
Version: 1.2
ItalicAngle: -3.1
UnderlinePosition: -179
UnderlineWidth: 51
Ascent: 819
Descent: 205
InvalidEm: 0
sfntRevision: 0x19994ccd
LayerCount: 2
Layer: 0 0 "Back" 1
Layer: 1 0 "Fore" 0
XUID: [1021 341 221541093 7902389]
StyleMap: 0x0040
FSType: 4
OS2Version: 4
OS2_WeightWidthSlopeOnly: 0
OS2_UseTypoMetrics: 0
CreationTime: 1673189336
ModificationTime: 1694919840
PfmFamily: 17
TTFWeight: 400
TTFWidth: 5
LineGap: 0
VLineGap: 0
Panose: 2 0 5 0 0 0 0 0 0 0
OS2TypoAscent: 1024
OS2TypoAOffset: 0
OS2TypoDescent: -307
OS2TypoDOffset: 0
OS2TypoLinegap: 0
OS2WinAscent: 1024
OS2WinAOffset: 0
OS2WinDescent: 307
OS2WinDOffset: 0
HheadAscent: 1024
HheadAOffset: 0
HheadDescent: -307
HheadDOffset: 0
OS2SubXSize: 512
OS2SubYSize: 512
OS2SubXOff: 0
OS2SubYOff: 0
OS2SupXSize: 512
OS2SupYSize: 512
OS2SupXOff: 0
OS2SupYOff: 0
OS2StrikeYSize: 51
OS2StrikeYPos: 341
OS2CapHeight: 717
OS2XHeight: 512
OS2Vendor: 'PfEd'
OS2CodePages: 00000001.00000000
Lookup: 1 0 0 "'aalt' Access All Alternates lookup 0" { "'aalt' Access All Alternates lookup 0 subtable"  } ['aalt' ('DFLT' <'dflt' > ) ]
Lookup: 6 0 0 "'liga' Standard Ligatures lookup 1" { "'liga' Standard Ligatures lookup 1 contextual 0"  "'liga' Standard Ligatures lookup 1 contextual 1"  "'liga' Standard Ligatures lookup 1 contextual 2"  } ['liga' ('DFLT' <'dflt' > ) ]
Lookup: 1 0 0 "Single Substitution lookup 2" { "Single Substitution lookup 2 subtable"  } []
Lookup: 260 0 0 "'mark' Mark Positioning lookup 0" { "'mark' Mark Positioning lookup 0 subtable"  } ['mark' ('DFLT' <'dflt' > ) ]
Lookup: 258 8 0 "'kern' Horizontal Kerning lookup 1" { "'kern' Horizontal Kerning lookup 1 subtable"  } ['kern' ('DFLT' <'dflt' > ) ]

StartChar: exclam
Encoding: 33 90490 2
Width: 509
Flags: W
HStem: -136 71<225.058 400.993> -35 20G<423.5 455.636> 508 20G<352.5 385.037>
VStem: 35 101<30.2096 232.222>
LayerCount: 2
Fore
SplineSet
299 -136 m 0
 227 -136 162 -105 115 -58 c 0
 66 -11 35 54 35 125 c 0
 35 186 57 248 94 302 c 0
 129 356 176 403 222 440 c 1
 206 448 135 549 119 568 c 1
 187 617 l 1
 203 593 281 505 281 482 c 1
 310 498 337 515 368 528 c 1
 414 474 l 1
 382 459 354 441 327 424 c 1
 339 419 406 325 416 310 c 1
 355 262 l 1
 344 277 273 366 269 379 c 1
 234 348 202 310 177 268 c 0
 151 226 136 180 136 130 c 0
 136 34 194 -65 309 -65 c 0
 358 -65 403 -48 444 -15 c 1
 476 -70 l 1
 429 -115 361 -136 299 -136 c 0
412 692 m 1
 359 629 l 1
 301 686 250 744 204 812 c 1
 263 883 l 1
 309 815 361 754 412 692 c 1
EndSplineSet
Validated: 1
EndChar

StartChar: RMA_LIGATURE_RRMEA
Encoding: 38 90487 3
Width: 1297
Flags: W
HStem: 105 56<990.674 1118.64> 220 63<349.836 409> 494 58<355.275 549.097> 506 57<789.649 1055.86>
VStem: 88 56<213.564 347.865> 227 77<328.03 447.761> 638 96<37.0072 403.317> 1160 103<212.006 408.065>
LayerCount: 2
Fore
SplineSet
406 175 m 1xef
 409 219 l 1
 384 220 l 2
 301 223 227 299 227 375 c 0
 227 501 347 552 462 552 c 0
 532 552 592 532 641 494 c 1xef
 726 532 848 563 957 563 c 0
 1108 563 1263 500 1263 321 c 0
 1263 266 1248 211 1217 172 c 0
 1184 131 1136 105 1074 105 c 0
 1033 105 971 117 945 167 c 1
 944 156 943 144 942 134 c 0
 941 124 939 112 938 101 c 1
 842 101 l 1
 853 192 864 282 872 373 c 1
 971 373 l 1
 964 327 957 280 952 234 c 1
 971 183 1019 161 1061 161 c 0
 1141 161 1160 246 1160 308 c 0
 1160 446 1070 506 936 506 c 0xdf
 854 506 771 485 689 444 c 1
 718 405 734 357 734 302 c 0
 734 200 709 -54 694 -234 c 1
 594 -234 l 1
 610 -57 638 189 638 292 c 0
 638 434 563 494 445 494 c 0
 364 494 304 455 304 386 c 0
 304 330 358 283 423 283 c 0
 452 283 479 290 509 293 c 1
 492 101 l 1
 399 102 l 1
 401 131 l 1
 144 117 l 1
 144 110 144 108 144 101 c 1
 36 101 l 1
 51 163 72 228 85 291 c 0
 86 297 88 313 88 321 c 0
 88 362 62 407 32 434 c 1
 52 461 l 1
 171 377 l 1
 159 301 145 209 145 160 c 1
 406 175 l 1xef
EndSplineSet
Validated: 1
EndChar

StartChar: comma
Encoding: 44 90489 4
Width: 293
Flags: W
VStem: 138 93<92.7645 215.283>
LayerCount: 2
Fore
SplineSet
53 268 m 1
 125 358 l 1
 201 305 231 257 231 186 c 0
 231 127 210 84 177 51 c 0
 143 17 103 -6 65 -23 c 1
 43 12 l 1
 94 41 138 87 138 148 c 0
 138 205 99 242 53 268 c 1
EndSplineSet
Validated: 1
EndChar

StartChar: hyphen
Encoding: 45 45 5
Width: 324
Flags: W
HStem: 291 84<42 283>
VStem: 42 241<291 375>
LayerCount: 2
Fore
SplineSet
42 291 m 1
 42 375 l 1
 283 375 l 1
 283 291 l 1
 42 291 l 1
EndSplineSet
Validated: 1
EndChar

StartChar: period
Encoding: 46 90488 6
Width: 421
Flags: W
VStem: 280 90<73.4907 203.491>
LayerCount: 2
Fore
SplineSet
225 -34 m 1
 183 11 l 1
 236 40 280 76 280 135 c 0
 280 192 243 232 198 257 c 1
 260 335 l 1
 339 286 370 245 370 170 c 0
 370 116 353 73 326 39 c 0
 299 5 263 -19 225 -34 c 1
208 138 m 1
 138 78 l 1
 121 114 67 174 35 198 c 1
 100 272 l 1
 130 247 205 178 208 138 c 1
EndSplineSet
Validated: 1
EndChar

StartChar: question
Encoding: 63 90491 7
Width: 509
Flags: W
HStem: -114 72<218.299 393.536> 497 60<125.473 151> 842 72<184.315 327.121>
VStem: 30 100<53.2528 237.284> 360 101<661.587 809.122>
LayerCount: 2
Fore
SplineSet
266 842 m 0
 237 842 213 832 193 823 c 0
 170 814 149 804 130 804 c 0
 97 804 91 827 91 834 c 0
 91 851 157 883 177 893 c 0
 202 905 232 914 265 914 c 0
 358 914 461 846 461 743 c 0
 461 640 358 558 261 519 c 1
 312 455 l 1
 341 464 370 472 400 477 c 1
 400 424 l 1
 384 417 366 413 351 406 c 1
 431 304 l 1
 365 266 l 1
 286 375 l 1
 244 352 206 323 177 286 c 0
 147 248 130 203 130 150 c 0
 130 100 146 51 176 16 c 0
 206 -21 250 -42 304 -42 c 0
 355 -42 393 -23 431 3 c 1
 470 -45 l 1
 427 -92 353 -114 295 -114 c 0
 222 -114 155 -83 108 -36 c 0
 59 11 30 76 30 139 c 0
 30 202 58 263 100 313 c 0
 142 363 198 402 247 428 c 1
 194 499 l 1
 187 498 178 497 170 497 c 0
 145 497 124 502 124 531 c 0
 124 547 134 557 151 557 c 1
 118 603 l 1
 172 633 l 1
 218 574 l 1
 222 577 l 2
 263 594 296 614 323 639 c 0
 349 664 360 695 360 736 c 0
 360 808 319 842 266 842 c 0
EndSplineSet
Validated: 1
EndChar

StartChar: A
Encoding: 65 90475 8
Width: 485
Flags: W
HStem: 112 35<225.029 260.977> 125 37<160.092 194.897 292.081 326.897> 163 36<102.178 137.857 348.144 383.839> 219 37<65.0261 100.977 385.023 420.971> 285 36<52.0648 87.948 398.007 432.994> 349 37<65.0261 100.977 385.023 420.971> 407 35<102.115 137.908 348.092 383.897> 443 37<160.092 194.897 292.081 326.897> 458 36<224.007 260.994>
VStem: 52 36<285.052 320.941> 65 36<219.058 255.941 349.059 385.942> 102 36<163.052 198.935 407.059 441.954> 160 35<125.023 161.971 443.029 479.977> 225 36<112.052 146.948 458.006 493.993> 292 35<125.023 161.971 443.029 479.977> 348 36<163.006 198.993 407.007 441.995> 385 36<219.058 255.941 349.059 385.942> 398 35<285.023 320.974>
AnchorPoint: "Anchor-0" 243 67 basechar 0
LayerCount: 2
Fore
SplineSet
309 443 m 0x3f1f
 299 443 292 453 292 463 c 0
 292 472 299 480 309 480 c 0
 318 480 327 472 327 463 c 0
 327 453 318 443 309 443 c 0x3f1f
121 163 m 0
 112 163 102 171 102 179 c 0
 102 189 112 199 121 199 c 0
 130 199 138 189 138 179 c 0
 138 171 130 163 121 163 c 0
177 125 m 0x7e1f
 168 125 160 133 160 142 c 0
 160 152 168 162 177 162 c 0
 186 162 195 152 195 142 c 0
 195 133 186 125 177 125 c 0x7e1f
84 219 m 0
 74 219 65 228 65 237 c 0
 65 247 74 256 84 256 c 0
 93 256 101 247 101 237 c 0x3e3f
 101 228 93 219 84 219 c 0
71 285 m 0
 62 285 52 293 52 302 c 0
 52 312 62 321 71 321 c 0
 80 321 88 312 88 302 c 0x3e5f
 88 293 80 285 71 285 c 0
244 112 m 0xbe1f
 235 112 225 120 225 129 c 0
 225 139 235 147 244 147 c 0
 253 147 261 139 261 129 c 0
 261 120 253 112 244 112 c 0xbe1f
84 349 m 0
 74 349 65 358 65 368 c 0
 65 377 74 386 84 386 c 0
 93 386 101 377 101 368 c 0x3e3f
 101 358 93 349 84 349 c 0
309 125 m 0x7e1f
 299 125 292 133 292 142 c 0
 292 152 299 162 309 162 c 0
 318 162 327 152 327 142 c 0
 327 133 318 125 309 125 c 0x7e1f
366 163 m 0
 356 163 348 171 348 179 c 0
 348 189 356 199 366 199 c 0
 375 199 384 189 384 179 c 0
 384 171 375 163 366 163 c 0
121 407 m 0
 112 407 102 416 102 426 c 0
 102 435 112 442 121 442 c 0
 130 442 138 435 138 426 c 0
 138 416 130 407 121 407 c 0
177 443 m 0x3f1f
 168 443 160 453 160 463 c 0
 160 472 168 480 177 480 c 0
 186 480 195 472 195 463 c 0
 195 453 186 443 177 443 c 0x3f1f
402 219 m 0
 393 219 385 228 385 237 c 0
 385 247 393 256 402 256 c 0
 411 256 421 247 421 237 c 0x3e1f80
 421 228 411 219 402 219 c 0
416 285 m 0
 408 285 398 293 398 303 c 0
 398 312 408 321 416 321 c 0
 425 321 433 312 433 303 c 0x3e1f40
 433 293 425 285 416 285 c 0
243 458 m 0x3e9f
 234 458 224 466 224 476 c 0
 224 485 234 494 243 494 c 0
 253 494 261 485 261 476 c 0
 261 466 253 458 243 458 c 0x3e9f
402 349 m 0
 393 349 385 358 385 368 c 0
 385 377 393 386 402 386 c 0
 411 386 421 377 421 368 c 0x3e1f80
 421 358 411 349 402 349 c 0
366 407 m 0
 356 407 348 416 348 426 c 0
 348 435 356 442 366 442 c 0
 375 442 384 435 384 426 c 0
 384 416 375 407 366 407 c 0
159 547 m 1
 85 620 l 1
 159 690 l 1
 231 618 l 1
 159 547 l 1
319 547 m 1
 247 620 l 1
 319 690 l 1
 393 618 l 1
 319 547 l 1
EndSplineSet
Validated: 1048577
Substitution2: "'aalt' Access All Alternates lookup 0 subtable" A.mark
Substitution2: "Single Substitution lookup 2 subtable" A.mark
EndChar

StartChar: B
Encoding: 66 90434 9
Width: 743
Flags: W
HStem: 112 54<426.641 552.768> 497 45<257.607 499.88>
VStem: 38 105<100 245.531> 103 71<531 722.027> 594 102<217.684 408.938>
AnchorPoint: "Anchor-1" 454 581 basechar 0
AnchorPoint: "Anchor-0" 379 45 basechar 0
LayerCount: 2
Fore
SplineSet
103 647 m 2xd8
 104 670 l 2
 104 711 84 750 51 775 c 1
 71 803 l 1
 195 726 l 1
 185 641 177 572 174 531 c 1xd8
 414 542 l 2
 490 542 561 531 612 498 c 0
 662 464 696 411 696 327 c 0
 696 272 681 216 650 177 c 0
 617 136 571 112 508 112 c 0
 467 112 405 122 379 172 c 1
 378 161 377 149 376 139 c 0
 375 129 374 117 373 106 c 1
 275 106 l 1
 286 197 298 287 306 378 c 1
 404 378 l 1
 397 332 391 286 386 240 c 1
 405 189 453 166 495 166 c 0
 575 166 594 254 594 313 c 0
 594 442 511 497 382 497 c 1
 171 486 l 1
 166 396 160 332 143 100 c 1
 38 100 l 1xe8
 78 347 99 596 103 647 c 2xd8
EndSplineSet
Validated: 1048577
EndChar

StartChar: cha
Encoding: 67 90469 10
Width: 588
Flags: W
HStem: 441 42<308.613 419> 505 20G<426.095 530>
VStem: 49 114<100 237.995>
AnchorPoint: "Anchor-1" 384 581 basechar 0
AnchorPoint: "Anchor-0" 291 45 basechar 0
LayerCount: 2
Fore
SplineSet
191 472 m 1
 424 483 l 1
 428 525 l 1
 530 525 l 1
 490 100 l 1
 382 100 l 1
 419 441 l 1
 188 426 l 1
 183 372 179 316 176 263 c 0
 172 210 168 154 163 100 c 1
 49 100 l 1
 60 172 72 240 82 309 c 0
 91 378 99 437 106 490 c 0
 117 582 133 677 133 716 c 0
 133 766 110 807 81 827 c 1
 99 856 l 1
 224 778 l 1
 212 677 199 575 191 472 c 1
EndSplineSet
Validated: 1048577
EndChar

StartChar: D
Encoding: 68 90441 11
Width: 724
Flags: W
HStem: 229 73<154.052 218.749> 497 59<150.85 297.156>
VStem: 38 70<340.238 455.194> 377 96<295.674 422.026>
AnchorPoint: "Anchor-1" 273 583 basechar 0
AnchorPoint: "Anchor-0" 379 45 basechar 0
LayerCount: 2
Fore
SplineSet
38 383 m 0
 38 498 140 556 260 556 c 0
 342 556 473 506 473 385 c 0
 473 284 403 221 314 177 c 1
 560 212 l 1
 604 715 l 1
 604 766 581 807 552 827 c 1
 570 856 l 1
 690 778 l 1
 650 100 l 1
 551 100 l 1
 556 163 l 1
 108 98 l 1
 98 145 l 1
 98 146 l 1
 167 155 238 170 289 201 c 0
 341 233 377 277 377 348 c 0
 377 444 279 497 227 497 c 0
 166 497 108 463 108 390 c 0
 108 323 185 311 244 302 c 1
 216 229 l 1
 144 234 38 285 38 383 c 0
EndSplineSet
Validated: 1048577
EndChar

StartChar: vowel_sig_eameagv
Encoding: 69 90476 12
Width: 485
Flags: W
HStem: 112 35<225.029 260.977> 125 37<160.092 194.897 292.081 326.897> 163 36<102.178 137.857 348.144 383.839> 219 37<65.0261 100.977 385.023 420.971> 285 36<52.0648 87.948 398.007 432.994> 349 37<65.0261 100.977 385.023 420.971> 407 35<102.115 137.908 348.092 383.897> 443 37<160.092 194.897 292.081 326.897> 458 36<224.007 260.994>
VStem: 52 36<285.052 320.941> 65 36<219.058 255.941 349.059 385.942> 102 36<163.052 198.935 407.059 441.954> 160 35<125.023 161.971 443.029 479.977> 225 36<112.052 146.948 458.006 493.993> 292 35<125.023 161.971 443.029 479.977> 348 36<163.006 198.993 407.007 441.995> 385 36<219.058 255.941 349.059 385.942> 398 35<285.023 320.974>
AnchorPoint: "Anchor-0" 243 67 basechar 0
LayerCount: 2
Fore
SplineSet
309 443 m 0x3f1f
 299 443 292 453 292 463 c 0
 292 472 299 480 309 480 c 0
 318 480 327 472 327 463 c 0
 327 453 318 443 309 443 c 0x3f1f
121 163 m 0
 112 163 102 171 102 179 c 0
 102 189 112 199 121 199 c 0
 130 199 138 189 138 179 c 0
 138 171 130 163 121 163 c 0
177 125 m 0x7e1f
 168 125 160 133 160 142 c 0
 160 152 168 162 177 162 c 0
 186 162 195 152 195 142 c 0
 195 133 186 125 177 125 c 0x7e1f
84 219 m 0
 74 219 65 228 65 237 c 0
 65 247 74 256 84 256 c 0
 93 256 101 247 101 237 c 0x3e3f
 101 228 93 219 84 219 c 0
71 285 m 0
 62 285 52 293 52 302 c 0
 52 312 62 321 71 321 c 0
 80 321 88 312 88 302 c 0x3e5f
 88 293 80 285 71 285 c 0
244 112 m 0xbe1f
 235 112 225 120 225 129 c 0
 225 139 235 147 244 147 c 0
 253 147 261 139 261 129 c 0
 261 120 253 112 244 112 c 0xbe1f
84 349 m 0
 74 349 65 358 65 368 c 0
 65 377 74 386 84 386 c 0
 93 386 101 377 101 368 c 0x3e3f
 101 358 93 349 84 349 c 0
309 125 m 0x7e1f
 299 125 292 133 292 142 c 0
 292 152 299 162 309 162 c 0
 318 162 327 152 327 142 c 0
 327 133 318 125 309 125 c 0x7e1f
366 163 m 0
 356 163 348 171 348 179 c 0
 348 189 356 199 366 199 c 0
 375 199 384 189 384 179 c 0
 384 171 375 163 366 163 c 0
121 407 m 0
 112 407 102 416 102 426 c 0
 102 435 112 442 121 442 c 0
 130 442 138 435 138 426 c 0
 138 416 130 407 121 407 c 0
177 443 m 0x3f1f
 168 443 160 453 160 463 c 0
 160 472 168 480 177 480 c 0
 186 480 195 472 195 463 c 0
 195 453 186 443 177 443 c 0x3f1f
402 219 m 0
 393 219 385 228 385 237 c 0
 385 247 393 256 402 256 c 0
 411 256 421 247 421 237 c 0x3e1f80
 421 228 411 219 402 219 c 0
416 285 m 0
 408 285 398 293 398 303 c 0
 398 312 408 321 416 321 c 0
 425 321 433 312 433 303 c 0x3e1f40
 433 293 425 285 416 285 c 0
243 458 m 0x3e9f
 234 458 224 466 224 476 c 0
 224 485 234 494 243 494 c 0
 253 494 261 485 261 476 c 0
 261 466 253 458 243 458 c 0x3e9f
402 349 m 0
 393 349 385 358 385 368 c 0
 385 377 393 386 402 386 c 0
 411 386 421 377 421 368 c 0x3e1f80
 421 358 411 349 402 349 c 0
366 407 m 0
 356 407 348 416 348 426 c 0
 348 435 356 442 366 442 c 0
 375 442 384 435 384 426 c 0
 384 416 375 407 366 407 c 0
291 557 m 1
 124 764 l 1
 227 764 l 1
 361 557 l 1
 291 557 l 1
EndSplineSet
Validated: 1048577
Substitution2: "Single Substitution lookup 2 subtable" E.mark
Substitution2: "'aalt' Access All Alternates lookup 0 subtable" E.mark
EndChar

StartChar: F
Encoding: 70 90460 13
Width: 432
Flags: W
HStem: 470 54<198.918 264>
VStem: 35 85<624.25 774>
AnchorPoint: "Anchor-1" 325 581 basechar 0
AnchorPoint: "Anchor-0" 216 45 basechar 0
LayerCount: 2
Fore
SplineSet
129 344 m 1
 264 470 l 1
 114 476 35 562 35 756 c 2
 35 774 l 1
 120 822 l 1
 120 692 129 524 268 524 c 2
 419 524 l 1
 175 288 l 1
 204 257 236 223 274 194 c 0
 312 164 352 141 394 130 c 1
 369 80 l 1
 307 103 237 143 175 193 c 0
 113 242 54 298 15 352 c 1
 70 438 l 1
 87 405 106 375 129 344 c 1
EndSplineSet
Validated: 1048577
EndChar

StartChar: G
Encoding: 71 90448 14
Width: 571
Flags: W
HStem: 483 42<181 410>
VStem: 385 97<101 169>
AnchorPoint: "Anchor-1" 407 583 basechar 0
AnchorPoint: "Anchor-0" 288 45 basechar 0
LayerCount: 2
Fore
SplineSet
161 180 m 1
 390 211 l 1
 410 483 l 1
 178 483 l 1
 161 180 l 1
181 525 m 1
 407 525 l 1
 511 527 l 1
 482 101 l 1
 385 101 l 1
 388 169 l 1
 159 137 l 1
 157 101 l 1
 57 101 l 1
 105 730 l 2
 105 765 81 804 52 827 c 1
 72 856 l 1
 196 778 l 1
 181 525 l 1
EndSplineSet
Validated: 1048577
EndChar

StartChar: H
Encoding: 72 90451 15
Width: 600
Flags: W
HStem: 77 48<167.577 280.391> 347 44<150.39 319.014> 478 48<136 137 143 450>
VStem: 29 91<176.979 292.265>
AnchorPoint: "Anchor-1" 329 581 basechar 0
AnchorPoint: "Anchor-0" 190 45 basechar 0
LayerCount: 2
Fore
SplineSet
132 478 m 1
 96 478 l 1
 77 577 l 1
 112 583 l 1
 117 560 128 540 143 523 c 1
 137 478 l 1
 132 478 l 1
 136 526 l 1
 540 524 l 1
 510 101 l 1
 484 -217 l 1
 401 -217 l 1
 427 100 l 2
 428 116 429 135 429 147 c 0
 429 201 407 253 370 290 c 0
 333 325 283 347 232 347 c 0
 156 347 120 316 120 257 c 0
 120 190 161 125 232 125 c 0
 265 125 286 137 309 169 c 1
 326 138 l 1
 307 100 238 77 179 77 c 0
 97 77 29 132 29 217 c 0
 29 323 145 391 263 391 c 0
 316 391 397 376 436 292 c 1
 443 384 447 409 450 474 c 1
 132 478 l 1
EndSplineSet
Validated: 1048581
EndChar

StartChar: I
Encoding: 73 90480 16
Width: 246
Flags: W
HStem: 505 20G<87.9062 186>
VStem: 47 139
AnchorPoint: "Anchor-2" 132 581 basechar 0
AnchorPoint: "Anchor-1" 129 581 basechar 0
AnchorPoint: "Anchor-0" 145 -274 basechar 0
LayerCount: 2
Fore
SplineSet
137 -243 m 1
 47 -243 l 1
 89 525 l 1
 186 525 l 1
 137 -243 l 1
EndSplineSet
Validated: 1
EndChar

StartChar: J
Encoding: 74 90454 17
Width: 563
Flags: W
HStem: 496 55<168 312.892>
VStem: 409 107<131.799 411.415>
AnchorPoint: "Anchor-1" 356 581 basechar 0
AnchorPoint: "Anchor-0" 278 45 basechar 0
LayerCount: 2
Fore
SplineSet
494 101 m 1
 382 100 l 1
 395 185 409 271 409 321 c 0
 409 400 374 442 327 468 c 0
 278 493 216 496 161 496 c 0
 146 496 129 496 114 495 c 0
 99 494 84 494 72 494 c 1
 85 563 95 629 100 700 c 1
 99 699 l 1
 100 702 102 723 102 732 c 0
 102 765 79 802 49 827 c 1
 69 856 l 1
 193 778 l 1
 182 702 176 627 168 550 c 1
 176 550 186 550 195 551 c 0
 204 551 215 551 225 551 c 0
 282 551 350 547 401 532 c 0
 477 508 506 457 512 389 c 0
 515 366 516 346 516 321 c 0
 516 246 503 174 494 101 c 1
175 101 m 1
 65 101 l 1
 81 193 93 285 100 377 c 1
 205 377 l 1
 190 285 178 193 175 101 c 1
EndSplineSet
Validated: 1048577
EndChar

StartChar: K
Encoding: 75 74 18
Width: 886
Flags: W
HStem: 42 54<264.56 400.763> 506 20G<294 469 729.636 847> 696 55<412.852 679.445>
VStem: 44 114<235.225 469.786> 504 91<210.769 358.361>
AnchorPoint: "Anchor-1" 431 784 basechar 0
AnchorPoint: "Anchor-0" 327 18 basechar 0
LayerCount: 2
Fore
SplineSet
564 427 m 1
 587 386 595 338 595 304 c 0
 595 228 554 163 496 117 c 0
 438 71 360 42 283 42 c 0
 241 42 206 50 175 65 c 0
 116 96 75 148 58 217 c 0
 49 252 44 287 44 326 c 0
 44 371 50 414 61 455 c 0
 97 575 181 667 304 711 c 0
 388 742 501 751 601 751 c 0
 627 751 649 750 674 749 c 1
 678 762 681 778 681 792 c 0
 681 803 678 816 675 829 c 1
 707 840 l 1
 745 743 l 1
 746 743 l 1
 766 693 l 1
 724 696 683 696 637 696 c 0
 590 696 527 694 468 689 c 0
 409 682 349 670 303 651 c 0
 173 598 158 480 158 395 c 0
 158 315 171 239 202 185 c 0
 233 131 279 96 348 96 c 0
 398 96 437 114 464 145 c 0
 490 175 504 218 504 265 c 0
 504 333 476 380 435 421 c 0
 394 460 343 491 294 526 c 1
 453 526 l 1
 485 514 516 494 534 471 c 1
 728 481 l 1
 731 525 l 1
 847 525 l 1
 830 406 818 290 811 169 c 1
 696 169 l 1
 711 258 719 348 726 439 c 1
 564 427 l 1
EndSplineSet
Validated: 1048577
EndChar

StartChar: L
Encoding: 76 90443 19
Width: 746
Flags: W
HStem: 253 72<169.086 244.588> 543 59<149.613 287.823>
VStem: 37 69<375.607 501.194> 380 96<295.288 442.683>
AnchorPoint: "Anchor-1" 264 625 basechar 0
AnchorPoint: "Anchor-0" 262 62 basechar 0
LayerCount: 2
Fore
SplineSet
476 390 m 0
 476 284 407 220 319 177 c 1
 577 214 l 1
 586 306 596 398 603 489 c 0
 610 580 618 672 625 764 c 1
 617 790 602 811 579 827 c 1
 598 856 l 1
 700 792 l 1
 697 787 l 1
 712 778 l 1
 695 637 679 495 667 355 c 0
 655 215 642 72 631 -69 c 0
 624 -152 618 -184 618 -215 c 0
 618 -220 619 -225 620 -229 c 0
 620 -233 620 -239 620 -243 c 1
 516 -243 l 1
 528 -174 540 -108 548 -40 c 0
 556 29 564 96 571 165 c 1
 114 98 l 1
 103 145 l 1
 103 146 l 1
 172 155 243 170 294 201 c 0
 345 232 380 277 380 353 c 0
 380 477 279 543 226 543 c 0
 165 543 106 509 106 436 c 0
 106 345 196 336 268 325 c 1
 242 253 l 1
 160 259 37 306 37 429 c 0
 37 544 138 602 259 602 c 0
 342 604 476 538 476 390 c 0
EndSplineSet
Validated: 1048609
EndChar

StartChar: M
Encoding: 77 90449 20
Width: 501
Flags: W
HStem: 106 66<49 311.984> 297 61<71 359.389> 480 61<97.4457 308.846>
VStem: 43 35<567.725 604.229> 360 95<233.528 304 353 431.868>
AnchorPoint: "Anchor-1" 287 581 basechar 0
AnchorPoint: "Anchor-0" 233 45 basechar 0
LayerCount: 2
Fore
SplineSet
67 297 m 1
 71 358 l 1
 330 358 l 2
 341 358 354 356 365 353 c 1
 365 456 290 480 189 480 c 2
 61 480 l 1
 61 483 46 592 43 603 c 1
 78 609 l 1
 84 580 97 557 120 540 c 1
 135 540 151 540 166 541 c 0
 181 541 197 541 211 541 c 0
 342 541 455 523 455 350 c 0
 455 203 376 106 195 106 c 2
 46 106 l 1
 49 172 l 1
 209 172 l 2
 326 172 350 206 360 304 c 1
 347 301 332 297 319 297 c 2
 67 297 l 1
EndSplineSet
Validated: 1048577
EndChar

StartChar: N
Encoding: 78 90482 21
Width: 139
Flags: W
HStem: -59 47<-77.6621 27.1065>
VStem: 38 101<-1.95201 99.9515>
LayerCount: 2
Fore
SplineSet
-40 119 m 2
 -172 111 l 1
 -172 150 l 1
 -61 164 l 2
 51 177 139 147 139 60 c 0
 139 -22 83 -59 -10 -59 c 0
 -44 -59 -74 -56 -116 -27 c 1
 -91 26 l 1
 -68 -8 -37 -12 -19 -12 c 0
 24 -12 38 16 38 60 c 0
 38 88 2 122 -40 119 c 2
EndSplineSet
Validated: 33
EndChar

StartChar: O
Encoding: 79 90473 22
Width: 535
Flags: W
HStem: 85 48<240.002 365.75> 356 40<279 365.28> 501 44<208.281 426>
VStem: 37 105<251.119 385.049> 401 97<190.74 321.007>
AnchorPoint: "Anchor-2" 302 575 basechar 0
AnchorPoint: "Anchor-1" 302 573 basechar 0
AnchorPoint: "Anchor-0" 267 45 basechar 0
LayerCount: 2
Fore
SplineSet
276 501 m 0
 208 501 142 442 142 369 c 0
 142 225 224 133 310 133 c 0
 355 133 401 176 401 232 c 0
 401 321 358 380 271 356 c 1
 279 396 l 1
 391 429 498 378 498 276 c 0
 498 165 400 85 257 85 c 0
 134 85 37 175 37 275 c 0
 37 434 154 545 326 545 c 2
 431 545 l 1
 426 498 l 1
 400 499 295 501 276 501 c 0
EndSplineSet
Validated: 33
EndChar

StartChar: P
Encoding: 80 90438 23
Width: 738
Flags: W
HStem: 112 54<433.641 560.83> 497 45<102.111 113 203.127 504.66>
VStem: 601 102<217.006 408.438>
AnchorPoint: "Anchor-1" 410 581 basechar 0
AnchorPoint: "Anchor-0" 440 45 basechar 0
LayerCount: 2
Fore
SplineSet
113 497 m 1
 72 497 l 1
 51 596 l 1
 86 602 l 1
 91 579 104 559 119 542 c 1
 419 542 l 2
 495 542 565 530 618 497 c 0
 669 463 703 410 703 326 c 0
 703 271 688 216 657 177 c 0
 624 136 577 112 515 112 c 0
 474 112 412 122 386 172 c 1
 385 161 384 149 383 139 c 0
 382 129 381 117 380 106 c 1
 283 106 l 1
 294 197 305 287 313 378 c 1
 412 378 l 1
 405 332 398 286 393 240 c 1
 412 189 460 166 502 166 c 0
 582 166 601 251 601 313 c 0
 601 442 515 497 386 497 c 2
 205 497 l 1
 193 392 152 -48 141 -239 c 1
 44 -239 l 1
 73 -37 103 351 113 497 c 1
EndSplineSet
Validated: 1048577
EndChar

StartChar: Q
Encoding: 81 90458 24
Width: 696
Flags: W
HStem: 87 76<197.745 383.969> 492 66<163.558 302.558> 720 46<243.434 401.856>
VStem: 38 78<249.052 415.833> 169 35<798.248 837.229> 341 95<316.566 453.324> 551 99<229.351 557.701>
AnchorPoint: "Anchor-1" 432 796 basechar 0
AnchorPoint: "Anchor-0" 310 45 basechar 0
LayerCount: 2
Fore
SplineSet
38 310 m 0
 38 418 112 558 252 558 c 0
 385 558 436 494 436 401 c 0
 436 330 396 274 327 231 c 1
 289 259 l 1
 322 298 341 340 341 377 c 0
 341 452 299 492 230 492 c 0
 143 492 116 429 116 354 c 0
 116 252 160 163 297 163 c 0
 373 163 464 188 535 229 c 1
 544 301 551 369 551 422 c 0
 551 559 503 655 402 699 c 0
 367 713 327 720 280 720 c 0
 251 720 220 718 187 713 c 1
 187 716 172 825 169 836 c 1
 204 842 l 1
 211 809 228 781 257 764 c 1
 272 765 287 766 300 766 c 0
 510 766 650 660 650 398 c 0
 650 293 631 194 622 100 c 1
 517 100 l 1
 518 111 520 125 522 137 c 0
 524 148 526 162 527 173 c 1
 488 147 441 127 394 112 c 0
 345 97 296 87 253 87 c 0
 111 87 38 188 38 310 c 0
EndSplineSet
Validated: 1048577
EndChar

StartChar: R
Encoding: 82 90472 25
Width: 775
Flags: W
HStem: 220 63<349.836 409> 494 58<355.275 549.068>
VStem: 88 56<213.564 347.865> 227 77<328.03 447.761> 638 96<37.0072 400.591>
AnchorPoint: "Anchor-1" 458 581 basechar 0
AnchorPoint: "Anchor-0" 332 45 basechar 0
LayerCount: 2
Fore
SplineSet
144 117 m 1
 144 110 144 108 144 101 c 1
 36 101 l 1
 51 163 72 228 85 291 c 0
 86 297 88 313 88 321 c 0
 88 362 62 407 32 434 c 1
 52 461 l 1
 171 377 l 1
 159 301 145 209 145 160 c 1
 406 175 l 1
 409 219 l 1
 384 220 l 2
 301 223 227 299 227 375 c 0
 227 501 347 552 462 552 c 0
 609 552 734 454 734 302 c 0
 734 200 709 -54 694 -234 c 1
 594 -234 l 1
 610 -57 638 189 638 292 c 0
 638 434 563 494 445 494 c 0
 364 494 304 455 304 386 c 0
 304 330 358 283 423 283 c 0
 452 283 479 290 509 293 c 1
 492 101 l 1
 399 102 l 1
 401 131 l 1
 144 117 l 1
EndSplineSet
Validated: 1048577
EndChar

StartChar: S
Encoding: 83 90467 26
Width: 864
Flags: W
HStem: -188 80<290.796 436.172> 443 41<600.929 709> 508 20G<242 423.5 710.512 825>
VStem: 40 85<72.962 306.99> 530 80<12.4395 213.348> 709 100<178.72 440.742> 711 114<241.83 443 484 525>
AnchorPoint: "Anchor-1" 391 581 basechar 0
AnchorPoint: "Anchor-0" 289 -199 basechar 0
LayerCount: 2
Fore
SplineSet
132 437 m 1xfc
 132 447 l 2
 132 475 126 500 113 519 c 1
 140 539 l 1
 218 436 l 1
 151 349 125 267 125 194 c 0
 125 18 252 -108 388 -108 c 0
 497 -108 530 -10 530 93 c 0
 530 160 507 229 470 297 c 0
 433 364 385 424 336 469 c 0
 311 489 275 521 242 528 c 1
 412 528 l 1
 435 512 456 492 475 473 c 1
 710 484 l 1
 711 525 l 1
 825 525 l 1xfa
 816 468 811 408 809 351 c 0
 807 294 803 234 800 176 c 1
 688 176 l 1
 695 220 699 264 702 309 c 0
 705 354 708 398 709 443 c 1
 513 430 l 1
 546 388 571 343 586 296 c 0
 601 249 610 200 610 151 c 0
 610 -37 502 -188 333 -188 c 0
 153 -188 40 -33 40 161 c 0
 40 253 61 346 132 437 c 1xfc
EndSplineSet
Validated: 1048577
EndChar

StartChar: zha
Encoding: 84 90468 27
Width: 825
Flags: W
HStem: 125 44<296.44 427> 234 64<365.891 438> 523 58<400.203 605.428>
VStem: 104 67<290.335 373.862> 248 76<337.362 460.135> 687 97<181.885 436.089>
AnchorPoint: "Anchor-1" 506 637 basechar 0
AnchorPoint: "Anchor-0" 414 45 basechar 0
LayerCount: 2
Fore
SplineSet
538 307 m 1
 518 101 l 1
 424 101 l 1
 427 125 l 1
 172 111 l 1
 172 101 l 1
 52 101 l 1
 67 163 88 228 101 291 c 1
 100 290 l 1
 103 297 104 314 104 321 c 0
 104 362 78 407 48 434 c 1
 70 461 l 1
 187 377 l 1
 176 310 171 247 171 180 c 2
 172 156 l 1
 432 169 l 1
 438 233 l 1
 413 234 l 2
 370 237 329 252 298 281 c 0
 267 310 248 348 248 397 c 0
 248 459 279 506 326 537 c 0
 372 567 436 581 495 581 c 0
 562 581 632 564 689 526 c 0
 744 487 784 426 784 338 c 0
 784 270 761 184 745 100 c 1
 642 100 l 1
 671 189 687 241 687 317 c 0
 687 398 666 450 633 481 c 0
 599 512 556 523 507 523 c 0
 404 523 324 473 324 397 c 0
 324 329 384 298 452 298 c 0
 481 298 508 304 538 307 c 1
EndSplineSet
Validated: 1048577
EndChar

StartChar: sha
Encoding: 85 90471 28
Width: 789
Flags: W
HStem: 58 47<409 476.547> 102 33<239.708 350.675> 508 36<231.713 308> 780 41<350.705 554.573>
VStem: 57 113<212.35 417.278> 282 34<863.48 900.265> 649 101<471.586 710.963>
AnchorPoint: "Anchor-1" 524 868 basechar 0
AnchorPoint: "Anchor-0" 268 45 basechar 0
LayerCount: 2
Fore
SplineSet
406 58 m 2xbe
 400 58 l 1
 409 105 l 1
 413 105 l 2
 457 105 508 73 544 48 c 1
 588 81 618 148 623 225 c 2
 644 541 l 2
 647 566 649 589 649 614 c 0
 649 717 608 750 532 766 c 0
 482 778 434 780 383 780 c 0
 368 780 353 780 340 780 c 0
 327 779 313 779 300 779 c 1
 300 787 286 883 282 899 c 1
 316 905 l 1
 323 868 347 837 380 821 c 1
 406 821 l 2
 463 821 616 815 675 777 c 0
 726 744 750 673 750 601 c 0
 750 585 748 566 745 549 c 2
 720 225 l 2
 714 141 648 33 597 7 c 1
 654 -42 707 -102 745 -165 c 1
 662 -214 l 1
 645 -168 609 -99 564 -44 c 0
 518 13 463 58 406 58 c 2xbe
367 193 m 2
 403 673 l 1
 506 673 l 1
 471 261 l 2
 460 143 362 102 265 102 c 0
 198 102 151 120 113 155 c 0
 76 189 57 237 57 302 c 2
 57 330 l 2
 57 401 94 452 144 489 c 0
 192 525 254 544 308 544 c 1
 315 508 l 1
 244 508 207 483 190 450 c 0
 171 416 170 378 170 351 c 0
 170 282 180 229 203 191 c 0
 223 153 257 135 303 135 c 0x7e
 341 135 364 148 367 193 c 2
EndSplineSet
Validated: 1048577
EndChar

StartChar: vva
Encoding: 86 90462 29
Width: 530
Flags: W
HStem: -203 52<176.047 337.782> 505 20G<280.36 452>
VStem: 10 80<-58.9749 118.078> 433 71<-44.9568 144.667>
AnchorPoint: "Anchor-1" 317 581 basechar 0
AnchorPoint: "Anchor-0" 279 -203 basechar 0
LayerCount: 2
Fore
SplineSet
223 386 m 1
 290 525 l 1
 452 525 l 1
 266 360 l 1
 320 329 381 293 427 246 c 0
 472 197 504 138 504 62 c 0
 504 -9 477 -73 431 -122 c 0
 385 -171 321 -203 242 -203 c 0
 179 -203 119 -180 78 -142 c 0
 36 -103 10 -49 10 20 c 0
 10 104 47 166 122 209 c 1
 156 181 l 1
 117 147 90 101 90 39 c 0
 90 -8 104 -55 133 -92 c 0
 162 -127 203 -151 256 -151 c 0
 309 -151 354 -127 385 -89 c 0
 416 -51 433 -1 433 53 c 0
 433 110 415 149 382 183 c 0
 349 216 305 241 255 271 c 2
 97 365 l 1
 140 435 l 1
 223 386 l 1
EndSplineSet
Validated: 1048577
EndChar

StartChar: dha
Encoding: 87 90470 30
Width: 775
Flags: W
HStem: 102 33<217.393 330.069> 508 36<211.713 288> 780 41<328.21 534.341>
VStem: 37 111<212.35 415.25> 260 35<860.636 900.229> 626 102<479.034 709.86>
AnchorPoint: "Anchor-1" 515 844 basechar 0
AnchorPoint: "Anchor-0" 406 45 basechar 0
LayerCount: 2
Fore
SplineSet
346 193 m 2
 383 673 l 1
 484 673 l 1
 450 261 l 2
 439 143 342 102 245 102 c 0
 178 102 128 120 91 155 c 0
 54 189 37 237 37 302 c 2
 37 335 l 2
 37 394 74 452 124 489 c 0
 172 525 234 544 288 544 c 1
 295 508 l 1
 224 508 187 483 170 450 c 0
 151 416 148 378 148 351 c 0
 148 282 158 229 181 191 c 0
 201 153 236 135 282 135 c 0
 320 135 343 148 346 193 c 2
510 767 m 0
 460 779 410 780 359 780 c 0
 327 780 306 779 279 779 c 1
 260 899 l 1
 295 905 l 1
 302 868 324 837 357 821 c 1
 384 821 l 2
 446 821 593 815 656 776 c 0
 709 743 728 676 728 601 c 0
 728 585 727 566 725 549 c 2
 682 100 l 1
 584 100 l 1
 623 541 l 2
 625 561 626 584 626 604 c 0
 626 658 617 693 600 718 c 0
 583 743 552 758 510 767 c 0
EndSplineSet
Validated: 1048577
EndChar

StartChar: xxa
Encoding: 88 90457 31
Width: 569
Flags: W
HStem: -243 56<116 418> 505 20G<77 188 413 515.255>
VStem: 80 108<469 525>
AnchorPoint: "Anchor-1" 314 581 basechar 0
AnchorPoint: "Anchor-0" 133 -263 basechar 0
LayerCount: 2
Fore
SplineSet
182 469 m 1
 409 484 l 1
 413 523 l 1
 517 525 l 1
 480 101 l 1
 368 100 l 1
 402 427 l 1
 176 408 l 1
 112 -185 l 1
 116 -187 l 1
 423 -187 l 1
 418 -243 l 1
 6 -243 l 1
 23 -115 40 13 52 140 c 0
 63 267 74 396 80 525 c 1
 188 525 l 1
 182 469 l 1
EndSplineSet
Validated: 1048577
EndChar

StartChar: Y
Encoding: 89 90445 32
Width: 579
Flags: W
HStem: -39 54<171 308.196> 90 61<181.966 370.533> 522 59<190.817 343.091>
VStem: 70 80<346.316 479.52> 445 93<232.793 407.573>
AnchorPoint: "Anchor-1" 308 628 basechar 0
AnchorPoint: "Anchor-0" 216 -99 basechar 0
LayerCount: 2
Fore
SplineSet
265 522 m 0
 202 522 150 485 150 417 c 0
 150 344 210 298 272 271 c 1
 199 229 l 1
 142 258 70 305 70 398 c 0
 70 453 96 498 138 531 c 0
 180 562 239 581 301 581 c 0
 372 581 430 560 472 519 c 0
 514 478 538 420 538 345 c 0
 538 273 515 210 470 164 c 0
 425 118 359 90 274 90 c 0
 255 90 219 91 182 94 c 1
 171 15 l 1
 246 15 316 9 378 -17 c 0
 440 -43 497 -84 540 -147 c 1
 495 -183 l 1
 454 -134 402 -100 345 -75 c 0
 287 -50 223 -39 161 -39 c 2
 85 -39 l 1
 86 -32 88 -25 88 -18 c 2
 103 190 l 1
 162 175 220 151 281 151 c 0
 380 151 445 216 445 312 c 0
 445 362 426 415 395 456 c 0
 362 495 318 522 265 522 c 0
EndSplineSet
Validated: 1048577
EndChar

StartChar: zza
Encoding: 90 90465 33
Width: 866
Flags: W
HStem: 55 66<233.354 394.064> 506 19G<303.5 458 709.636 827>
VStem: 41 97<242.622 510.901> 471 95<216.823 376.937>
AnchorPoint: "Anchor-1" 480 581 basechar 0
AnchorPoint: "Anchor-0" 285 45 basechar 0
LayerCount: 2
Fore
SplineSet
542 427 m 1
 557 393 566 354 566 312 c 0
 566 239 530 175 479 129 c 0
 426 83 355 55 282 55 c 0
 206 55 145 85 104 138 c 0
 62 189 41 265 41 354 c 0
 41 421 51 484 80 563 c 0
 92 600 105 627 112 646 c 0
 117 661 117 671 117 678 c 0
 117 717 102 753 73 780 c 1
 94 805 l 1
 210 728 l 1
 191 672 173 616 160 563 c 0
 147 510 138 452 138 393 c 0
 138 330 147 261 174 210 c 0
 201 157 244 121 315 121 c 0
 419 121 471 200 471 288 c 0
 471 349 446 392 409 429 c 0
 372 466 326 495 281 526 c 1
 458 525 l 1
 478 513 502 491 517 471 c 1
 708 481 l 1
 711 525 l 1
 827 525 l 1
 810 406 798 290 791 169 c 1
 676 169 l 1
 691 258 699 348 706 439 c 1
 542 427 l 1
EndSplineSet
Validated: 1048577
EndChar

StartChar: grave
Encoding: 96 96 34
Width: 485
Flags: W
HStem: 112 35<225.029 260.977> 125 37<160.092 194.897 292.081 326.897> 163 36<102.178 137.857 348.144 383.839> 219 37<65.0261 100.977 385.023 420.971> 285 36<52.0648 87.948 398.007 432.994> 349 37<65.0261 100.977 385.023 420.971> 407 35<102.115 137.908 348.092 383.897> 443 37<160.092 194.897 292.081 326.897> 458 36<224.007 260.994>
VStem: 52 36<285.052 320.941> 65 36<219.058 255.941 349.059 385.942> 102 36<163.052 198.935 407.059 441.954> 160 35<125.023 161.971 443.029 479.977> 225 36<112.052 146.948 458.006 493.993> 292 35<125.023 161.971 443.029 479.977> 348 36<163.006 198.993 407.007 441.995> 385 36<219.058 255.941 349.059 385.942> 398 35<285.023 320.974>
AnchorPoint: "Anchor-0" 243 67 basechar 0
LayerCount: 2
Fore
SplineSet
309 443 m 0x3f1f
 299 443 292 453 292 463 c 0
 292 472 299 480 309 480 c 0
 318 480 327 472 327 463 c 0
 327 453 318 443 309 443 c 0x3f1f
121 163 m 0
 112 163 102 171 102 179 c 0
 102 189 112 199 121 199 c 0
 130 199 138 189 138 179 c 0
 138 171 130 163 121 163 c 0
177 125 m 0x7e1f
 168 125 160 133 160 142 c 0
 160 152 168 162 177 162 c 0
 186 162 195 152 195 142 c 0
 195 133 186 125 177 125 c 0x7e1f
84 219 m 0
 74 219 65 228 65 237 c 0
 65 247 74 256 84 256 c 0
 93 256 101 247 101 237 c 0x3e3f
 101 228 93 219 84 219 c 0
71 285 m 0
 62 285 52 293 52 302 c 0
 52 312 62 321 71 321 c 0
 80 321 88 312 88 302 c 0x3e5f
 88 293 80 285 71 285 c 0
244 112 m 0xbe1f
 235 112 225 120 225 129 c 0
 225 139 235 147 244 147 c 0
 253 147 261 139 261 129 c 0
 261 120 253 112 244 112 c 0xbe1f
84 349 m 0
 74 349 65 358 65 368 c 0
 65 377 74 386 84 386 c 0
 93 386 101 377 101 368 c 0x3e3f
 101 358 93 349 84 349 c 0
309 125 m 0x7e1f
 299 125 292 133 292 142 c 0
 292 152 299 162 309 162 c 0
 318 162 327 152 327 142 c 0
 327 133 318 125 309 125 c 0x7e1f
366 163 m 0
 356 163 348 171 348 179 c 0
 348 189 356 199 366 199 c 0
 375 199 384 189 384 179 c 0
 384 171 375 163 366 163 c 0
121 407 m 0
 112 407 102 416 102 426 c 0
 102 435 112 442 121 442 c 0
 130 442 138 435 138 426 c 0
 138 416 130 407 121 407 c 0
177 443 m 0x3f1f
 168 443 160 453 160 463 c 0
 160 472 168 480 177 480 c 0
 186 480 195 472 195 463 c 0
 195 453 186 443 177 443 c 0x3f1f
402 219 m 0
 393 219 385 228 385 237 c 0
 385 247 393 256 402 256 c 0
 411 256 421 247 421 237 c 0x3e1f80
 421 228 411 219 402 219 c 0
416 285 m 0
 408 285 398 293 398 303 c 0
 398 312 408 321 416 321 c 0
 425 321 433 312 433 303 c 0x3e1f40
 433 293 425 285 416 285 c 0
243 458 m 0x3e9f
 234 458 224 466 224 476 c 0
 224 485 234 494 243 494 c 0
 253 494 261 485 261 476 c 0
 261 466 253 458 243 458 c 0x3e9f
402 349 m 0
 393 349 385 358 385 368 c 0
 385 377 393 386 402 386 c 0
 411 386 421 377 421 368 c 0x3e1f80
 421 358 411 349 402 349 c 0
366 407 m 0
 356 407 348 416 348 426 c 0
 348 435 356 442 366 442 c 0
 375 442 384 435 384 426 c 0
 384 416 375 407 366 407 c 0
337 663 m 1
 245 655 135 658 30 669 c 1
 43 734 l 1
 172 707 326 708 466 719 c 1
 437 676 l 1
 429 675 l 1
 299 557 l 1
 259 578 l 1
 337 663 l 1
EndSplineSet
Validated: 1048609
Substitution2: "Single Substitution lookup 2 subtable" high.mark
Substitution2: "'aalt' Access All Alternates lookup 0 subtable" high.mark
EndChar

StartChar: a
Encoding: 97 90474 35
Width: 485
Flags: W
HStem: 112 35<225.029 260.977> 125 37<160.092 194.897 292.081 326.897> 163 36<102.178 137.857 348.144 383.839> 219 37<65.0261 100.977 385.023 420.971> 285 36<52.0648 87.948 398.007 432.994> 349 37<65.0261 100.977 385.023 420.971> 407 35<102.115 137.908 348.092 383.897> 443 37<160.092 194.897 292.081 326.897> 458 36<224.007 260.994>
VStem: 52 36<285.052 320.941> 65 36<219.058 255.941 349.059 385.942> 102 36<163.052 198.935 407.059 441.954> 160 35<125.023 161.971 443.029 479.977> 225 36<112.052 146.948 458.006 493.993> 292 35<125.023 161.971 443.029 479.977> 348 36<163.006 198.993 407.007 441.995> 385 36<219.058 255.941 349.059 385.942> 398 35<285.023 320.974>
AnchorPoint: "Anchor-0" 243 67 basechar 0
LayerCount: 2
Fore
SplineSet
309 443 m 0x3f1f
 299 443 292 453 292 463 c 0
 292 472 299 480 309 480 c 0
 318 480 327 472 327 463 c 0
 327 453 318 443 309 443 c 0x3f1f
121 163 m 0
 112 163 102 171 102 179 c 0
 102 189 112 199 121 199 c 0
 130 199 138 189 138 179 c 0
 138 171 130 163 121 163 c 0
177 125 m 0x7e1f
 168 125 160 133 160 142 c 0
 160 152 168 162 177 162 c 0
 186 162 195 152 195 142 c 0
 195 133 186 125 177 125 c 0x7e1f
84 219 m 0
 74 219 65 228 65 237 c 0
 65 247 74 256 84 256 c 0
 93 256 101 247 101 237 c 0x3e3f
 101 228 93 219 84 219 c 0
71 285 m 0
 62 285 52 293 52 302 c 0
 52 312 62 321 71 321 c 0
 80 321 88 312 88 302 c 0x3e5f
 88 293 80 285 71 285 c 0
244 112 m 0xbe1f
 235 112 225 120 225 129 c 0
 225 139 235 147 244 147 c 0
 253 147 261 139 261 129 c 0
 261 120 253 112 244 112 c 0xbe1f
84 349 m 0
 74 349 65 358 65 368 c 0
 65 377 74 386 84 386 c 0
 93 386 101 377 101 368 c 0x3e3f
 101 358 93 349 84 349 c 0
309 125 m 0x7e1f
 299 125 292 133 292 142 c 0
 292 152 299 162 309 162 c 0
 318 162 327 152 327 142 c 0
 327 133 318 125 309 125 c 0x7e1f
366 163 m 0
 356 163 348 171 348 179 c 0
 348 189 356 199 366 199 c 0
 375 199 384 189 384 179 c 0
 384 171 375 163 366 163 c 0
121 407 m 0
 112 407 102 416 102 426 c 0
 102 435 112 442 121 442 c 0
 130 442 138 435 138 426 c 0
 138 416 130 407 121 407 c 0
177 443 m 0x3f1f
 168 443 160 453 160 463 c 0
 160 472 168 480 177 480 c 0
 186 480 195 472 195 463 c 0
 195 453 186 443 177 443 c 0x3f1f
402 219 m 0
 393 219 385 228 385 237 c 0
 385 247 393 256 402 256 c 0
 411 256 421 247 421 237 c 0x3e1f80
 421 228 411 219 402 219 c 0
416 285 m 0
 408 285 398 293 398 303 c 0
 398 312 408 321 416 321 c 0
 425 321 433 312 433 303 c 0x3e1f40
 433 293 425 285 416 285 c 0
243 458 m 0x3e9f
 234 458 224 466 224 476 c 0
 224 485 234 494 243 494 c 0
 253 494 261 485 261 476 c 0
 261 466 253 458 243 458 c 0x3e9f
402 349 m 0
 393 349 385 358 385 368 c 0
 385 377 393 386 402 386 c 0
 411 386 421 377 421 368 c 0x3e1f80
 421 358 411 349 402 349 c 0
366 407 m 0
 356 407 348 416 348 426 c 0
 348 435 356 442 366 442 c 0
 375 442 384 435 384 426 c 0
 384 416 375 407 366 407 c 0
242 596 m 1
 168 669 l 1
 239 740 l 1
 314 668 l 1
 242 596 l 1
EndSplineSet
Validated: 1048577
Substitution2: "'aalt' Access All Alternates lookup 0 subtable" a.mark
Substitution2: "Single Substitution lookup 2 subtable" a.mark
EndChar

StartChar: b
Encoding: 98 90432 36
Width: 547
Flags: W
HStem: 441 41<250.989 383> 505 20G<77 167.491 388.14 487>
VStem: 67 84<315 389.287> 77 92<478.689 524>
AnchorPoint: "Anchor-1" 288 581 basechar 0
AnchorPoint: "Anchor-0" 255 45 basechar 0
LayerCount: 2
Fore
SplineSet
390 525 m 1xd0
 487 525 l 1
 450 101 l 1
 354 101 l 1
 357 148 l 1
 81 111 l 1
 82 155 l 1
 361 190 l 1
 383 441 l 1
 162 429 l 1
 151 315 l 1
 67 315 l 1xe0
 77 524 l 1
 169 525 l 1
 165 472 l 1
 386 482 l 1
 390 525 l 1xd0
EndSplineSet
Validated: 1048577
EndChar

StartChar: c
Encoding: 99 90464 37
Width: 593
Flags: W
HStem: 505 20G<423 526>
VStem: 417 75<212.438 338.957>
AnchorPoint: "Anchor-1" 414 581 basechar 0
AnchorPoint: "Anchor-0" 276 45 basechar 0
LayerCount: 2
Fore
SplineSet
170 185 m 2
 169 177 l 1
 403 210 l 1
 408 262 414 315 417 368 c 0
 420 420 422 473 424 525 c 1
 526 525 l 1
 510 384 498 241 492 98 c 1
 394 98 l 1
 402 187 l 1
 399 162 l 1
 166 133 l 1
 163 100 l 1
 49 100 l 1
 60 173 72 241 82 310 c 0
 91 378 99 437 106 490 c 0
 117 586 133 674 133 715 c 0
 133 766 110 807 81 827 c 1
 99 856 l 1
 224 778 l 1
 212 679 202 579 195 482 c 0
 188 385 179 284 170 185 c 2
EndSplineSet
Validated: 1048577
EndChar

StartChar: d
Encoding: 100 90439 38
Width: 583
Flags: W
HStem: 505 20G<414.486 518>
AnchorPoint: "Anchor-1" 312 581 basechar 0
AnchorPoint: "Anchor-0" 269 45 basechar 0
LayerCount: 2
Fore
SplineSet
392 208 m 1
 416 525 l 1
 518 525 l 1
 481 98 l 1
 384 98 l 1
 388 161 l 1
 168 133 l 1
 166 101 l 1
 52 101 l 1
 56 120 101 328 108 366 c 0
 109 373 112 384 112 393 c 0
 112 434 83 485 54 510 c 1
 76 536 l 1
 194 452 l 1
 170 178 l 1
 392 208 l 1
EndSplineSet
Validated: 1048577
EndChar

StartChar: e
Encoding: 101 90478 39
Width: 273
Flags: W
HStem: 505 20G<109.571 213>
VStem: -126 339
AnchorPoint: "Anchor-2" 152 581 basechar 0
AnchorPoint: "Anchor-0" 136 45 basechar 0
LayerCount: 2
Fore
SplineSet
108 483 m 1
 111 525 l 1
 213 525 l 1
 186 101 l 1
 79 101 l 1
 105 441 l 1
 -126 424 l 1
 -126 470 l 1
 108 483 l 1
EndSplineSet
Validated: 1048577
EndChar

StartChar: f
Encoding: 102 90436 40
Width: 748
Flags: W
HStem: -204 56<246.435 441.66> 112 54<423.641 549.908> 497 45<257.865 496.246>
VStem: 42 93<-5.01639 311.749> 591 102<217.943 411.759>
AnchorPoint: "Anchor-1" 418 581 basechar 0
AnchorPoint: "Anchor-0" 273 -210 basechar 0
LayerCount: 2
Fore
SplineSet
369 106 m 1
 272 106 l 1
 283 197 295 287 303 378 c 1
 401 378 l 1
 394 332 388 286 383 240 c 1
 402 189 450 166 492 166 c 0
 572 166 591 253 591 314 c 0
 591 377 571 425 532 454 c 0
 493 483 442 497 379 497 c 2
 173 486 l 1
 164 389 159 302 143 203 c 0
 136 161 135 138 135 113 c 0
 135 54 145 -12 178 -62 c 0
 209 -112 262 -148 343 -148 c 0
 390 -148 423 -137 484 -106 c 1
 511 -147 l 1
 455 -184 394 -204 331 -204 c 0
 284 -204 243 -193 207 -176 c 0
 170 -158 142 -133 117 -102 c 0
 68 -41 42 41 42 125 c 0
 42 144 43 165 50 215 c 0
 55 257 63 307 70 358 c 0
 77 408 84 461 88 506 c 0
 95 581 104 630 104 663 c 0
 104 714 82 753 52 776 c 1
 72 804 l 1
 196 727 l 1
 193 693 180 577 176 531 c 1
 411 542 l 2
 487 542 557 531 608 498 c 0
 659 464 693 411 693 327 c 0
 693 272 678 217 647 178 c 0
 616 137 568 112 505 112 c 0
 464 112 402 122 376 172 c 1
 375 161 374 149 373 139 c 0
 372 129 370 117 369 106 c 1
EndSplineSet
Validated: 1048577
EndChar

StartChar: ga
Encoding: 103 90446 41
Width: 614
Flags: W
HStem: 86 54<257.959 417.998> 472 62<181.227 412.944>
VStem: 56 90<254.028 389.302> 496 77<232.322 382.766>
AnchorPoint: "Anchor-1" 338 581 basechar 0
AnchorPoint: "Anchor-0" 295 45 basechar 0
LayerCount: 2
Fore
SplineSet
254 534 m 1
 479 534 l 1
 471 483 l 1
 561 452 573 393 573 340 c 0
 573 183 455 86 304 86 c 0
 184 86 56 151 56 292 c 0
 56 394 125 471 184 534 c 1
 254 534 l 1
382 472 m 1
 199 472 l 1
 153 425 146 381 146 350 c 0
 146 222 245 140 340 140 c 0
 432 140 496 217 496 303 c 0
 496 383 437 438 382 472 c 1
EndSplineSet
Validated: 1048577
EndChar

StartChar: h
Encoding: 104 90450 42
Width: 600
Flags: W
HStem: 77 48<167.577 280.391> 347 44<150.39 319.014> 478 48<136 137 143 450>
VStem: 29 91<176.979 292.265>
AnchorPoint: "Anchor-1" 326 581 basechar 0
AnchorPoint: "Anchor-0" 265 62 basechar 0
LayerCount: 2
Fore
SplineSet
132 478 m 1
 136 526 l 1
 540 524 l 1
 510 100 l 1
 427 100 l 1
 428 116 429 135 429 147 c 0
 429 201 407 253 370 290 c 0
 333 325 283 347 232 347 c 0
 156 347 120 316 120 257 c 0
 120 190 161 125 232 125 c 0
 265 125 286 137 309 169 c 1
 326 138 l 1
 307 100 238 77 179 77 c 0
 97 77 29 132 29 217 c 0
 29 323 145 391 263 391 c 0
 316 391 397 376 436 292 c 1
 443 384 447 409 450 474 c 1
 132 478 l 1
 96 478 l 1
 77 577 l 1
 112 583 l 1
 117 560 128 540 143 523 c 1
 137 478 l 1
 132 478 l 1
EndSplineSet
Validated: 1048581
EndChar

StartChar: i
Encoding: 105 90479 43
Width: 251
Flags: W
HStem: 505 20G<85.8235 191>
VStem: 62 129
AnchorPoint: "Anchor-2" 140 581 basechar 0
AnchorPoint: "Anchor-1" 139 581 basechar 0
AnchorPoint: "Anchor-0" 144 45 basechar 0
LayerCount: 2
Fore
SplineSet
167 100 m 1
 62 100 l 1
 87 525 l 1
 191 525 l 1
 167 100 l 1
EndSplineSet
Validated: 1
EndChar

StartChar: j
Encoding: 106 90452 44
Width: 565
Flags: W
HStem: 494 41<127.913 330.968>
VStem: 69 33<547.155 581.303> 407 112<103.511 413.434>
AnchorPoint: "Anchor-1" 321 581 basechar 0
AnchorPoint: "Anchor-0" 283 45 basechar 0
LayerCount: 2
Fore
SplineSet
519 314 m 0
 519 252 509 176 500 101 c 1
 390 100 l 1
 397 153 407 234 407 297 c 0
 407 468 348 494 188 494 c 0
 157 494 107 477 89 470 c 1
 87 482 l 1
 69 580 l 1
 102 586 l 1
 109 560 122 536 141 520 c 1
 165 526 200 535 236 535 c 0
 369 535 519 493 519 314 c 0
95 337 m 1
 200 337 l 1
 187 257 186 181 183 101 c 1
 74 101 l 1
 89 180 90 257 95 337 c 1
EndSplineSet
Validated: 1048577
EndChar

StartChar: k
Encoding: 107 90447 45
Width: 583
Flags: W
HStem: 466 56<139.483 416>
VStem: 94 104<220.561 390>
AnchorPoint: "Anchor-1" 317 581 basechar 0
AnchorPoint: "Anchor-0" 135 -224 basechar 0
LayerCount: 2
Fore
SplineSet
525 525 m 1
 487 101 l 1
 377 100 l 1
 383 160 l 1
 166 133 l 1
 155 30 146 -73 139 -176 c 1
 48 -176 l 1
 63 -81 75 13 81 106 c 0
 87 199 91 295 94 390 c 1
 198 390 l 1
 190 322 179 256 172 188 c 1
 389 218 l 1
 416 466 l 1
 209 466 l 1
 209 467 l 1
 128 475 71 497 18 560 c 1
 55 599 l 1
 96 556 148 522 308 522 c 0
 312 522 422 522 525 525 c 1
EndSplineSet
Validated: 1048577
EndChar

StartChar: l
Encoding: 108 90444 46
Width: 569
Flags: W
HStem: 111 60<54 155.579> 220 68<201.945 275.741> 504 58<186.911 345.346>
VStem: 70 69<336.697 460.445> 445 93<234.24 398.186>
AnchorPoint: "Anchor-1" 299 598 basechar 0
AnchorPoint: "Anchor-0" 193 20 basechar 0
LayerCount: 2
Fore
SplineSet
139 400 m 0
 139 308 222 302 299 288 c 1
 273 220 l 1
 232 223 182 235 141 264 c 0
 99 293 70 335 70 396 c 0
 70 496 170 562 299 562 c 0
 441 562 538 481 538 343 c 0
 538 176 419 100 260 86 c 1
 364 28 429 -40 487 -143 c 1
 403 -193 l 1
 380 -140 356 -86 323 -40 c 0
 293 2 252 43 193 82 c 1
 153 96 119 104 36 111 c 1
 54 171 l 1
 128 168 l 1
 163 143 185 130 230 130 c 0
 255 130 281 134 300 139 c 0
 399 164 445 215 445 303 c 0
 445 404 373 504 265 504 c 0
 196 504 139 463 139 400 c 0
EndSplineSet
Validated: 1048577
EndChar

StartChar: m
Encoding: 109 90435 47
Width: 740
Flags: W
HStem: 105 56<436.224 557.545>
VStem: 289 96<101 172> 603 103<216.999 392.328>
AnchorPoint: "Anchor-1" 396 564 basechar 0
AnchorPoint: "Anchor-0" 346 45 basechar 0
LayerCount: 2
Fore
SplineSet
113 480 m 1
 72 480 l 1
 51 579 l 1
 86 585 l 1
 91 562 104 542 119 525 c 1
 353 539 l 2
 560 550 706 459 706 319 c 0
 706 193 622 105 511 105 c 0
 474 105 417 109 388 172 c 1
 385 101 l 1
 289 101 l 1
 308 378 l 1
 404 378 l 1
 396 240 l 1
 419 183 460 161 498 161 c 0
 566 161 603 224 603 307 c 0
 603 425 498 508 327 492 c 2
 208 480 l 1
 180 101 l 1
 79 101 l 1
 113 480 l 1
EndSplineSet
Validated: 1048609
EndChar

StartChar: n
Encoding: 110 90442 48
Width: 545
Flags: W
HStem: 80 54<125.673 338.512> 231 73<181.051 254.651> 522 59<159.037 315.333>
VStem: 47 71<354.968 480.536> 419 97<237.176 406.921>
AnchorPoint: "Anchor-1" 270 622 basechar 0
AnchorPoint: "Anchor-0" 264 45 basechar 0
LayerCount: 2
Fore
SplineSet
243 80 m 0
 188 80 127 94 58 114 c 1
 81 186 l 1
 128 149 163 134 230 134 c 0
 348 134 419 187 419 301 c 0
 419 414 346 522 237 522 c 0
 176 522 118 489 118 416 c 0
 118 325 207 315 279 304 c 1
 252 231 l 1
 170 237 47 285 47 408 c 0
 47 523 148 581 269 581 c 0
 342 581 403 559 446 520 c 0
 489 479 516 423 516 348 c 0
 516 275 490 207 444 160 c 0
 397 111 330 80 243 80 c 0
EndSplineSet
Validated: 1048577
EndChar

StartChar: o
Encoding: 111 90481 49
Width: 358
Flags: W
HStem: 101 61<154 317> 505 20G<83 188>
VStem: 84 70<284.616 398.387>
AnchorPoint: "Anchor-2" 143 579 basechar 0
AnchorPoint: "Anchor-0" 190 45 basechar 0
LayerCount: 2
Fore
SplineSet
154 162 m 1
 327 162 l 1
 317 100 l 1
 42 101 l 1
 59 219 82 431 84 525 c 1
 188 524 l 1
 173 440 158 260 154 162 c 1
EndSplineSet
Validated: 1048577
EndChar

StartChar: p
Encoding: 112 90433 50
Width: 555
Flags: W
HStem: 505 20G<381.209 485>
VStem: 80 87<606.039 770> 347 106<101 137 179 195.976>
AnchorPoint: "Anchor-1" 381 581 basechar 0
AnchorPoint: "Anchor-0" 262 45 basechar 0
LayerCount: 2
Fore
SplineSet
347 101 m 1
 348 137 l 1
 65 101 l 1
 65 145 l 1
 351 179 l 1
 373 440 l 1
 147 427 l 1
 139 330 l 1
 55 330 l 1
 80 717 l 2
 80 754 58 794 24 819 c 1
 42 847 l 1
 167 770 l 1
 154 472 l 1
 378 482 l 1
 384 525 l 1
 485 525 l 1
 453 101 l 1
 347 101 l 1
EndSplineSet
Validated: 1048577
EndChar

StartChar: q
Encoding: 113 90453 51
Width: 568
Flags: W
HStem: 494 41<127.913 314.11>
VStem: 69 33<547.155 581.303> 417 102<73.2964 412.578>
AnchorPoint: "Anchor-1" 319 581 basechar 0
AnchorPoint: "Anchor-0" 163 45 basechar 0
LayerCount: 2
Fore
SplineSet
179 101 m 1
 70 101 l 1
 86 193 97 285 104 377 c 1
 209 377 l 1
 194 285 182 193 179 101 c 1
519 314 m 0
 519 219 466 -167 458 -234 c 1
 352 -236 l 1
 364 -180 417 185 417 297 c 0
 417 310 417 328 416 333 c 0
 416 462 296 494 188 494 c 0
 157 494 107 477 89 470 c 1
 87 482 l 1
 69 580 l 1
 102 586 l 1
 109 560 122 536 141 520 c 1
 165 526 200 535 236 535 c 0
 369 535 519 493 519 314 c 0
EndSplineSet
Validated: 1048577
EndChar

StartChar: r
Encoding: 114 90483 52
Width: 443
Flags: W
HStem: 468 62<266.937 386.476>
VStem: 52 99<100 184.622>
LayerCount: 2
Fore
SplineSet
151 100 m 1
 52 100 l 1
 88 525 l 1
 188 525 l 1
 173 396 l 1
 205 447 253 530 336 530 c 0
 359 530 398 524 431 504 c 1
 413 424 l 1
 387 450 355 468 317 468 c 0
 248 468 197 405 174 356 c 1
 160 309 151 184 151 100 c 1
EndSplineSet
Validated: 1
EndChar

StartChar: s
Encoding: 115 90466 53
Width: 867
Flags: W
HStem: -180 63<286.527 436.045> 508 20G<278 460.5 713.024 828>
VStem: 40 104<83.3047 368.032> 553 73<41.7831 241.464> 711 96<180.126 438.944> 714 114<245.713 443 484 525>
AnchorPoint: "Anchor-1" 591 581 basechar 0
AnchorPoint: "Anchor-0" 305 -187 basechar 0
LayerCount: 2
Fore
SplineSet
323 -180 m 0xf8
 175 -180 40 -58 40 193 c 0
 40 414 150 620 219 718 c 1
 219 732 l 2
 219 758 195 799 183 810 c 1
 214 834 l 1
 316 708 l 1
 212 596 144 432 144 244 c 0
 144 13 255 -117 355 -117 c 0
 475 -117 553 -30 553 140 c 0
 553 244 435 498 278 528 c 1
 449 528 l 1
 472 512 492 493 509 473 c 1
 712 484 l 1
 714 525 l 1
 828 525 l 1xf4
 816 421 813 301 807 176 c 1
 695 176 l 1
 708 264 708 354 711 443 c 1
 541 430 l 1
 602 333 626 254 626 186 c 0
 626 2 530 -180 323 -180 c 0xf8
EndSplineSet
Validated: 1048577
EndChar

StartChar: t
Encoding: 116 90440 54
Width: 583
Flags: W
HStem: 494 31G<61.7037 106.095 423.955 525>
VStem: 114 56<343.515 402.403>
AnchorPoint: "Anchor-1" 312 581 basechar 0
AnchorPoint: "Anchor-0" 170 45 basechar 0
LayerCount: 2
Fore
SplineSet
389 162 m 1
 168 133 l 1
 166 101 l 1
 52 101 l 1
 67 184 95 261 111 344 c 1
 109 343 l 1
 112 354 114 364 114 371 c 0
 114 412 85 462 56 487 c 1
 78 514 l 1
 196 430 l 1
 184 346 177 261 170 176 c 1
 394 212 l 1
 426 525 l 1
 525 525 l 1
 482 98 l 1
 481 98 l 1
 452 -243 l 1
 357 -243 l 1
 389 162 l 1
EndSplineSet
Validated: 1048577
EndChar

StartChar: vowelSignUgud
Encoding: 117 90477 55
Width: 265
Flags: W
HStem: 505 20G<100.612 205>
AnchorPoint: "Anchor-2" 154 583 basechar 0
AnchorPoint: "Anchor-1" 154 581 basechar 0
AnchorPoint: "Anchor-0" 131 45 basechar 0
LayerCount: 2
Fore
SplineSet
102 525 m 1
 205 525 l 1
 169 101 l 1
 72 101 l 1
 76 162 l 1
 -157 141 l 1
 -152 183 l 1
 80 208 l 1
 102 525 l 1
EndSplineSet
Validated: 1
EndChar

StartChar: v
Encoding: 118 90461 56
Width: 459
Flags: W
HStem: 505 20G<272.018 416>
AnchorPoint: "Anchor-1" 264 581 basechar 0
AnchorPoint: "Anchor-0" 221 45 basechar 0
LayerCount: 2
Fore
SplineSet
416 136 m 1
 390 93 l 1
 322 116 251 164 188 221 c 0
 125 278 68 344 30 401 c 1
 98 472 l 1
 117 430 145 391 174 354 c 1
 285 525 l 1
 416 525 l 1
 204 318 l 1
 257 255 340 173 416 136 c 1
EndSplineSet
Validated: 1048577
EndChar

StartChar: wa
Encoding: 119 90437 57
Width: 729
Flags: W
HStem: -184 52<287.594 481.876> 112 54<423.641 549.832> 497 45<83.4037 113 205 493.468>
VStem: 57 93<10.24 219.704> 591 102<217.595 409.858>
AnchorPoint: "Anchor-1" 367 581 basechar 0
AnchorPoint: "Anchor-0" 268 -175 basechar 0
LayerCount: 2
Fore
SplineSet
369 106 m 1
 272 106 l 1
 283 197 295 287 303 378 c 1
 401 378 l 1
 394 332 388 286 383 240 c 1
 402 189 450 166 492 166 c 0
 572 166 591 253 591 314 c 0
 591 445 505 497 379 497 c 2
 205 497 l 1
 155 181 l 2
 152 161 150 138 150 123 c 0
 150 2 215 -132 396 -132 c 0
 435 -132 469 -120 500 -101 c 1
 519 -135 l 1
 489 -168 431 -184 376 -184 c 0
 175 -184 57 -40 57 122 c 0
 57 146 58 165 60 179 c 2
 113 497 l 1
 53 497 l 1
 34 596 l 1
 69 602 l 1
 74 579 84 559 100 542 c 1
 411 542 l 2
 563 542 693 495 693 327 c 0
 693 214 631 112 505 112 c 0
 464 112 402 122 376 172 c 1
 374 149 371 129 369 106 c 1
EndSplineSet
Validated: 1048577
EndChar

StartChar: x
Encoding: 120 90456 58
Width: 599
Flags: W
HStem: 505 20G<93.5 205 437 539.491>
VStem: 95 110<479.603 525>
AnchorPoint: "Anchor-1" 321 581 basechar 0
AnchorPoint: "Anchor-0" 286 45 basechar 0
LayerCount: 2
Fore
SplineSet
396 100 m 1
 428 427 l 1
 188 407 l 1
 176 306 166 203 159 100 c 1
 59 100 l 1
 67 172 76 242 82 313 c 0
 87 384 92 453 95 525 c 1
 205 525 l 1
 196 468 l 1
 433 484 l 1
 437 523 l 1
 541 525 l 1
 509 101 l 1
 396 100 l 1
EndSplineSet
Validated: 1048577
EndChar

StartChar: y
Encoding: 121 90455 59
Width: 575
Flags: W
HStem: 505 20G<77.5 188 413 515.255>
VStem: 80 108<470.584 525>
AnchorPoint: "Anchor-1" 299 581 basechar 0
AnchorPoint: "Anchor-0" 370 45 basechar 0
LayerCount: 2
Fore
SplineSet
368 100 m 1
 402 427 l 1
 174 408 l 1
 161 300 147 192 136 84 c 0
 125 -24 113 -134 104 -243 c 1
 6 -243 l 1
 24 -115 41 13 53 140 c 0
 64 267 75 396 80 525 c 1
 188 525 l 1
 181 469 l 1
 409 484 l 1
 413 523 l 1
 517 525 l 1
 480 101 l 1
 368 100 l 1
EndSplineSet
Validated: 1048577
EndChar

StartChar: z
Encoding: 122 90463 60
Width: 887
Flags: W
HStem: 73 52<261.61 431.963> 506 19G<324.75 467 730.636 848>
VStem: 44 96<250.55 356.752> 499 95<213.273 360.474>
AnchorPoint: "Anchor-1" 428 581 basechar 0
AnchorPoint: "Anchor-0" 329 45 basechar 0
LayerCount: 2
Fore
SplineSet
116 541 m 1
 143 559 l 1
 216 453 l 1
 165 415 140 390 140 349 c 0
 140 237 222 125 354 125 c 0
 432 125 499 179 499 262 c 0
 499 364 433 449 348 494 c 2
 286 526 l 1
 467 525 l 1
 494 513 515 493 534 470 c 1
 729 481 l 1
 732 525 l 1
 848 525 l 1
 812 169 l 1
 697 169 l 1
 727 439 l 1
 562 426 l 1
 581 388 594 346 594 304 c 0
 594 165 460 73 309 73 c 0
 167 73 44 142 44 280 c 0
 44 330 71 377 120 420 c 1
 137 459 136 505 116 541 c 1
EndSplineSet
Validated: 1048609
EndChar

StartChar: asciitilde
Encoding: 126 126 61
Width: 485
Flags: W
HStem: 112 35<225.029 260.977> 125 37<160.092 194.897 292.081 326.897> 163 36<102.178 137.857 348.144 383.839> 219 37<65.0261 100.977 385.023 420.971> 285 36<52.0648 87.948 398.007 432.994> 349 37<65.0261 100.977 385.023 420.971> 407 35<102.115 137.908 348.092 383.897> 443 37<160.092 194.897 292.081 326.897> 458 36<224.007 260.994>
VStem: 52 36<285.052 320.941> 65 36<219.058 255.941 349.059 385.942> 102 36<163.052 198.935 407.059 441.954> 160 35<125.023 161.971 443.029 479.977> 225 36<112.052 146.948 458.006 493.993> 292 35<125.023 161.971 443.029 479.977> 348 36<163.006 198.993 407.007 441.995> 385 36<219.058 255.941 349.059 385.942> 398 35<285.023 320.974>
LayerCount: 2
Fore
SplineSet
309 443 m 0x3f1f
 299 443 292 453 292 463 c 0
 292 472 299 480 309 480 c 0
 318 480 327 472 327 463 c 0
 327 453 318 443 309 443 c 0x3f1f
121 163 m 0
 112 163 102 171 102 179 c 0
 102 189 112 199 121 199 c 0
 130 199 138 189 138 179 c 0
 138 171 130 163 121 163 c 0
177 125 m 0x7e1f
 168 125 160 133 160 142 c 0
 160 152 168 162 177 162 c 0
 186 162 195 152 195 142 c 0
 195 133 186 125 177 125 c 0x7e1f
84 219 m 0
 74 219 65 228 65 237 c 0
 65 247 74 256 84 256 c 0
 93 256 101 247 101 237 c 0x3e3f
 101 228 93 219 84 219 c 0
71 285 m 0
 62 285 52 293 52 302 c 0
 52 312 62 321 71 321 c 0
 80 321 88 312 88 302 c 0x3e5f
 88 293 80 285 71 285 c 0
244 112 m 0xbe1f
 235 112 225 120 225 129 c 0
 225 139 235 147 244 147 c 0
 253 147 261 139 261 129 c 0
 261 120 253 112 244 112 c 0xbe1f
84 349 m 0
 74 349 65 358 65 368 c 0
 65 377 74 386 84 386 c 0
 93 386 101 377 101 368 c 0x3e3f
 101 358 93 349 84 349 c 0
309 125 m 0x7e1f
 299 125 292 133 292 142 c 0
 292 152 299 162 309 162 c 0
 318 162 327 152 327 142 c 0
 327 133 318 125 309 125 c 0x7e1f
366 163 m 0
 356 163 348 171 348 179 c 0
 348 189 356 199 366 199 c 0
 375 199 384 189 384 179 c 0
 384 171 375 163 366 163 c 0
121 407 m 0
 112 407 102 416 102 426 c 0
 102 435 112 442 121 442 c 0
 130 442 138 435 138 426 c 0
 138 416 130 407 121 407 c 0
177 443 m 0x3f1f
 168 443 160 453 160 463 c 0
 160 472 168 480 177 480 c 0
 186 480 195 472 195 463 c 0
 195 453 186 443 177 443 c 0x3f1f
402 219 m 0
 393 219 385 228 385 237 c 0
 385 247 393 256 402 256 c 0
 411 256 421 247 421 237 c 0x3e1f80
 421 228 411 219 402 219 c 0
416 285 m 0
 408 285 398 293 398 303 c 0
 398 312 408 321 416 321 c 0
 425 321 433 312 433 303 c 0x3e1f40
 433 293 425 285 416 285 c 0
243 458 m 0x3e9f
 234 458 224 466 224 476 c 0
 224 485 234 494 243 494 c 0
 253 494 261 485 261 476 c 0
 261 466 253 458 243 458 c 0x3e9f
402 349 m 0
 393 349 385 358 385 368 c 0
 385 377 393 386 402 386 c 0
 411 386 421 377 421 368 c 0x3e1f80
 421 358 411 349 402 349 c 0
366 407 m 0
 356 407 348 416 348 426 c 0
 348 435 356 442 366 442 c 0
 375 442 384 435 384 426 c 0
 384 416 375 407 366 407 c 0
152 -28 m 1
 239 -20 342 -23 441 -33 c 1
 428 -97 l 1
 305 -71 164 -73 35 -83 c 1
 62 -40 l 1
 68 -39 l 1
 163 72 l 1
 203 50 l 1
 152 -28 l 1
EndSplineSet
Validated: 33
Substitution2: "Single Substitution lookup 2 subtable" low.mark
Substitution2: "'aalt' Access All Alternates lookup 0 subtable" low.mark
EndChar

StartChar: quoteleft
Encoding: 8216 8216 62
Width: 492
Flags: W
HStem: 512 21G<180.712 217.352>
LayerCount: 2
Fore
SplineSet
584 919 m 1
 586 913 l 1
 198 512 l 1
 147 571 l 1
 537 975 l 1
 539 969 l 1
 554 952 568 934 584 919 c 1
EndSplineSet
Validated: 1
EndChar

StartChar: quoteright
Encoding: 8217 8217 63
Width: 492
Flags: W
LayerCount: 2
Fore
SplineSet
25 -218 m 1
 411 186 l 1
 411 185 l 1
 417 181 l 1
 417 180 l 1
 425 171 432 163 438 156 c 0
 449 144 461 130 462 127 c 2
 72 -276 l 1
 41 -238 l 1
 43 -237 l 1
 25 -218 l 1
EndSplineSet
Validated: 1
EndChar

StartChar: quotedblleft
Encoding: 8220 8220 64
Width: 560
Flags: W
LayerCount: 2
Fore
SplineSet
456 999 m 1
 456 998 l 1
 461 994 l 1
 71 593 l 1
 56 612 38 637 19 650 c 1
 410 1056 l 1
 456 999 l 1
647 952 m 1
 260 550 l 1
 209 608 l 1
 599 1012 l 1
 600 1011 l 1
 600 1005 l 1
 606 1003 641 962 647 952 c 1
EndSplineSet
Validated: 1
EndChar

StartChar: quotedblright
Encoding: 8221 8221 65
Width: 649
Flags: W
LayerCount: 2
Fore
SplineSet
440 186 m 1
 50 -212 l 1
 50 -211 l 2
 47 -208 43 -205 39 -203 c 2
 36 -195 l 1
 37 -194 l 1
 30 -190 22 -181 18 -174 c 0
 14 -170 12 -168 9 -164 c 2
 1 -158 l 1
 0 -155 l 1
 390 250 l 1
 394 246 l 1
 392 245 l 1
 409 228 427 206 440 186 c 1
603 129 m 1
 603 128 l 1
 607 125 l 1
 218 -275 l 1
 218 -274 l 1
 203 -255 183 -239 171 -219 c 1
 168 -218 l 1
 556 186 l 1
 561 182 l 1
 561 181 l 1
 564 179 l 2
 565 174 568 171 572 170 c 0
 573 169 573 168 574 167 c 0
 574 166 574 164 575 163 c 0
 584 158 596 138 603 129 c 1
EndSplineSet
Validated: 1
EndChar

StartChar: uni25CC
Encoding: 9676 9676 66
Width: 485
Flags: W
HStem: 112 35<225.029 260.977> 125 37<160.092 194.897 292.081 326.897> 163 36<102.178 137.857 348.144 383.839> 219 37<65.0261 100.977 385.023 420.971> 285 36<52.0648 87.948 398.007 432.994> 349 37<65.0261 100.977 385.023 420.971> 407 35<102.115 137.908 348.092 383.897> 443 37<160.092 194.897 292.081 326.897> 458 36<224.007 260.994>
VStem: 52 36<285.052 320.941> 65 36<219.058 255.941 349.059 385.942> 102 36<163.052 198.935 407.059 441.954> 160 35<125.023 161.971 443.029 479.977> 225 36<112.052 146.948 458.006 493.993> 292 35<125.023 161.971 443.029 479.977> 348 36<163.006 198.993 407.007 441.995> 385 36<219.058 255.941 349.059 385.942> 398 35<285.023 320.974>
AnchorPoint: "Anchor-2" 242 563 basechar 0
AnchorPoint: "Anchor-1" 242 560 basechar 0
AnchorPoint: "Anchor-0" 248 47 basechar 0
LayerCount: 2
Fore
SplineSet
309 443 m 0x3f1f
 299 443 292 453 292 463 c 0
 292 472 299 480 309 480 c 0
 318 480 327 472 327 463 c 0
 327 453 318 443 309 443 c 0x3f1f
121 163 m 0
 112 163 102 171 102 179 c 0
 102 189 112 199 121 199 c 0
 130 199 138 189 138 179 c 0
 138 171 130 163 121 163 c 0
177 125 m 0x7e1f
 168 125 160 133 160 142 c 0
 160 152 168 162 177 162 c 0
 186 162 195 152 195 142 c 0
 195 133 186 125 177 125 c 0x7e1f
84 219 m 0
 74 219 65 228 65 237 c 0
 65 247 74 256 84 256 c 0
 93 256 101 247 101 237 c 0x3e3f
 101 228 93 219 84 219 c 0
71 285 m 0
 62 285 52 293 52 302 c 0
 52 312 62 321 71 321 c 0
 80 321 88 312 88 302 c 0x3e5f
 88 293 80 285 71 285 c 0
244 112 m 0xbe1f
 235 112 225 120 225 129 c 0
 225 139 235 147 244 147 c 0
 253 147 261 139 261 129 c 0
 261 120 253 112 244 112 c 0xbe1f
84 349 m 0
 74 349 65 358 65 368 c 0
 65 377 74 386 84 386 c 0
 93 386 101 377 101 368 c 0x3e3f
 101 358 93 349 84 349 c 0
309 125 m 0x7e1f
 299 125 292 133 292 142 c 0
 292 152 299 162 309 162 c 0
 318 162 327 152 327 142 c 0
 327 133 318 125 309 125 c 0x7e1f
366 163 m 0
 356 163 348 171 348 179 c 0
 348 189 356 199 366 199 c 0
 375 199 384 189 384 179 c 0
 384 171 375 163 366 163 c 0
121 407 m 0
 112 407 102 416 102 426 c 0
 102 435 112 442 121 442 c 0
 130 442 138 435 138 426 c 0
 138 416 130 407 121 407 c 0
177 443 m 0x3f1f
 168 443 160 453 160 463 c 0
 160 472 168 480 177 480 c 0
 186 480 195 472 195 463 c 0
 195 453 186 443 177 443 c 0x3f1f
402 219 m 0
 393 219 385 228 385 237 c 0
 385 247 393 256 402 256 c 0
 411 256 421 247 421 237 c 0x3e1f80
 421 228 411 219 402 219 c 0
416 285 m 0
 408 285 398 293 398 303 c 0
 398 312 408 321 416 321 c 0
 425 321 433 312 433 303 c 0x3e1f40
 433 293 425 285 416 285 c 0
243 458 m 0x3e9f
 234 458 224 466 224 476 c 0
 224 485 234 494 243 494 c 0
 253 494 261 485 261 476 c 0
 261 466 253 458 243 458 c 0x3e9f
402 349 m 0
 393 349 385 358 385 368 c 0
 385 377 393 386 402 386 c 0
 411 386 421 377 421 368 c 0x3e1f80
 421 358 411 349 402 349 c 0
366 407 m 0
 356 407 348 416 348 426 c 0
 348 435 356 442 366 442 c 0
 375 442 384 435 384 426 c 0
 384 416 375 407 366 407 c 0
EndSplineSet
Validated: 1
EndChar

StartChar: A.mark
Encoding: 1114112 -1 67
Width: 0
Flags: W
HStem: 547 143
VStem: 85 308
AnchorPoint: "Anchor-3" 259 723 basemark 0
AnchorPoint: "Anchor-1" 245 512 mark 0
LayerCount: 2
Fore
SplineSet
159 547 m 1
 85 620 l 1
 159 690 l 1
 231 618 l 1
 159 547 l 1
319 547 m 1
 247 620 l 1
 319 690 l 1
 393 618 l 1
 319 547 l 1
EndSplineSet
Validated: 1
EndChar

StartChar: E.mark
Encoding: 1114113 -1 68
Width: 0
Flags: W
HStem: 557 207
VStem: 124 237
AnchorPoint: "Anchor-3" 279 755 basemark 0
AnchorPoint: "Anchor-1" 263 528 mark 0
LayerCount: 2
Fore
SplineSet
291 557 m 1
 124 764 l 1
 227 764 l 1
 361 557 l 1
 291 557 l 1
EndSplineSet
Validated: 1
EndChar

StartChar: a.mark
Encoding: 1114114 -1 69
Width: 0
Flags: W
HStem: 596 144
VStem: 168 146
AnchorPoint: "Anchor-3" 283 734 basemark 0
AnchorPoint: "Anchor-1" 244 558 mark 0
LayerCount: 2
Fore
SplineSet
242 596 m 1
 168 669 l 1
 239 740 l 1
 314 668 l 1
 242 596 l 1
EndSplineSet
Validated: 1
EndChar

StartChar: high.mark
Encoding: 1114115 -1 70
Width: 0
Flags: W
HStem: 557 177
AnchorPoint: "Anchor-3" 270 563 mark 0
AnchorPoint: "Anchor-2" 270 563 mark 0
LayerCount: 2
Fore
SplineSet
337 663 m 1
 245 655 135 658 30 669 c 1
 43 734 l 1
 172 707 326 708 466 719 c 1
 437 676 l 1
 429 675 l 1
 299 557 l 1
 259 578 l 1
 337 663 l 1
EndSplineSet
Validated: 33
Position2: "Single Positioning lookup 4 subtable" dx=-126 dy=0 dh=0 dv=0
EndChar

StartChar: low.mark
Encoding: 1114116 -1 71
Width: 0
Flags: W
HStem: -97 169
AnchorPoint: "Anchor-0" 237 43 mark 0
LayerCount: 2
Fore
SplineSet
152 -28 m 1
 239 -20 342 -23 441 -33 c 1
 428 -97 l 1
 305 -71 164 -73 35 -83 c 1
 62 -40 l 1
 68 -39 l 1
 163 72 l 1
 203 50 l 1
 152 -28 l 1
EndSplineSet
Validated: 33
Position2: "Single Positioning lookup 4 subtable" dx=-126 dy=0 dh=0 dv=0
EndChar
